<?xml version="1.0" encoding="utf-8"?>
<!-- Generator: Adobe Illustrator 21.1.0, SVG Export Plug-In . SVG Version: 6.00 Build 0)  -->
<svg version="1.1" id="Шар_1" xmlns="http://www.w3.org/2000/svg" xmlns:xlink="http://www.w3.org/1999/xlink" x="0px" y="0px"
	 viewBox="0 0 1019.9 442.6" style="enable-background:new 0 0 1019.9 442.6;" xml:space="preserve">
<style type="text/css">
	.st0{fill:#FFFFFF;}
	.st1{fill:#1DC3FC;}
</style>
<g>
	<path class="st0" d="M51.6,19.1l0.3,0.7c4.7,16.7-8,33.1-25.4,33.1h-0.3C11.7,52.9,0,41.2,0,26.8v-0.7C0,11.7,11.4,0.3,25.8,0l0,0
		C37.5-0.3,48.2,7.4,51.6,19.1z M60.9,121.9v210.6c0,14.4-11.7,26.1-26.1,26.1h-8.4c-14.4,0-26.1-11.7-26.1-26.1V121.9
		c0-14.4,11.7-26.1,26.1-26.1h8.4C49.2,95.8,60.9,107.5,60.9,121.9z"/>
	<path class="st0" d="M109.1,343.5v-233c0-8.4,6.7-15.1,15.1-15.1H144c7,0,13.4,5,14.7,12.1l0,0c2,11,15.1,15.7,24.1,9
		c18.4-14.1,38.5-21.1,60.6-21.1c57.2,0,86,32.5,86,97.1v150.6c0,8.4-6.7,15.1-15.1,15.1h-30.8c-8.4,0-15.1-6.7-15.1-15.1V192.5
		c0-29.1-13.4-43.5-39.8-43.5c-17.7,0-35.5,7-52.6,21.1c-3.7,3-5.7,7-5.7,11.7v161.7c0,8.4-6.7,15.1-15.1,15.1h-30.8
		C115.8,358.5,109.1,351.8,109.1,343.5z"/>
	<path class="st0" d="M394.3,52.9h7.7c9.7,0,18.1,6.7,20.1,16.4l2,10c2,9.4,10.4,16.4,20.1,16.4h23.4c11.4,0,20.8,9.4,20.8,20.8v11
		c0,11.4-9.4,20.8-20.8,20.8h-12.7c-11.4,0-20.8,9.4-20.8,20.8v100.1c0,24.4,9.7,36.8,29.1,36.8h4c11.4,0,20.8,9.4,20.8,20.8v11
		c0,11.4-9.4,20.8-20.8,20.8h-33.5c-40.5,0-60.9-23.8-60.9-71V73.7C373.6,62.3,383,52.9,394.3,52.9z"/>
	<path class="st0" d="M662.5,357.9c5-0.3,9.4-2.7,12.7-6.4l28.5-34.8c5-6.4,0-15.7-8-14.4c-16.7,2.3-33.1,3.3-49.9,3.3
		c-35.8,0-58.9-9.4-69-28.5c-6.7-12.4,3-27.1,16.7-27.1H714c10,0,18.1-8,18.7-17.7c0.3-5,0.3-9.7,0.3-14.7
		c0-81.3-36.8-122.2-110.1-122.2c-75.7,0-113.5,42.8-113.5,128.5c0,89.7,43.9,134.6,131.6,134.6
		C648.4,358.5,655.5,358.2,662.5,357.9z M623,147.6c33.8,0,50.5,18.1,50.5,54.6v2h-80.7c-12.7,0-22.1-12.7-17.7-24.4
		C582.8,158.4,598.5,147.6,623,147.6z"/>
</g>
<g>
	<path class="st0" d="M813.8,217.9l-75-100.1c-6.7-9-0.3-22.1,11-22.1h21.8c15.1,0,29.1,7,38.2,19.1l35.5,47.5
		c5.7,7.4,16.7,7.4,22.1,0l70.3-94.1c14.4-19.1,37.2-30.5,60.9-30.5h6.7c11.4,0,17.7,13.1,11,22.1l-117.5,158
		c-3.7,5-3.7,11.7,0,16.4l74.7,100.1c6.7,9,0.3,22.1-11,22.1h-2c-27.5,0-53.6-13.1-70-35.1L867,289.9c-5.7-7.4-16.7-7.4-22.1,0
		L795,356.5l-42.2,52.9c-16.4,20.1-40.5,32.1-66.3,33.1l0,0c-11.7,0.3-18.4-12.7-11.4-22.1L814,234.6
		C817.5,229.7,817.5,222.6,813.8,217.9z"/>
</g>
<g>
	<path class="st1" d="M1005.9,37.8h-6.7c-24.1,0-46.5,11.4-60.9,30.5L868,162.4c-10,11.4-20.8,1.3-20.8,1.3l58.6,78.7l-6-8
		c-3.7-5-3.7-11.7,0-16.4l117.5-158C1023.7,50.9,1017.3,37.8,1005.9,37.8z"/>
</g>
</svg>
